<svg width="92" height="14" viewBox="0 0 92 14" fill="none" xmlns="http://www.w3.org/2000/svg">
<path d="M15.127 8.16406C15.1777 8.71484 15.3398 9.11133 15.6133 9.35352C15.8867 9.5918 16.2832 9.71094 16.8027 9.71094C17.377 9.71094 17.8027 9.52148 18.0801 9.14258C18.3574 8.75977 18.5176 8.19531 18.5605 7.44922H15.8652V6.02539H18.5547C18.5078 5.26367 18.3359 4.69922 18.0391 4.33203C17.7461 3.96094 17.3262 3.77539 16.7793 3.77539C16.248 3.77539 15.8496 3.90234 15.584 4.15625C15.3184 4.40625 15.1641 4.81055 15.1211 5.36914H13.3633C13.4492 4.43555 13.7891 3.69922 14.3828 3.16016C14.9805 2.62109 15.7793 2.35156 16.7793 2.35156C17.4902 2.35156 18.1133 2.51953 18.6484 2.85547C19.1875 3.1875 19.6016 3.66602 19.8906 4.29102C20.1797 4.91211 20.3242 5.63672 20.3242 6.46484V7.02148C20.3242 8.2793 20.0098 9.27734 19.3809 10.0156C18.7559 10.75 17.8965 11.1172 16.8027 11.1172C15.7949 11.1172 14.9863 10.8516 14.377 10.3203C13.7715 9.78516 13.4355 9.06641 13.3691 8.16406H15.127ZM24.3496 7.51367H23.3359V11H21.5781V2.46875H23.3359V5.88477H24.1387L26.2246 2.46875H28.3691L25.7383 6.50586L28.6445 11H26.5469L24.3496 7.51367ZM35.834 8.1582C35.7676 9.07617 35.4277 9.79883 34.8145 10.3262C34.2051 10.8535 33.4004 11.1172 32.4004 11.1172C31.3066 11.1172 30.4453 10.75 29.8164 10.0156C29.1914 9.27734 28.8789 8.26562 28.8789 6.98047V6.45898C28.8789 5.63867 29.0234 4.91602 29.3125 4.29102C29.6016 3.66602 30.0137 3.1875 30.5488 2.85547C31.0879 2.51953 31.7129 2.35156 32.4238 2.35156C33.4082 2.35156 34.2012 2.61523 34.8027 3.14258C35.4043 3.66992 35.752 4.41016 35.8457 5.36328H34.0879C34.0449 4.8125 33.8906 4.41406 33.625 4.16797C33.3633 3.91797 32.9629 3.79297 32.4238 3.79297C31.8379 3.79297 31.3984 4.00391 31.1055 4.42578C30.8164 4.84375 30.668 5.49414 30.6602 6.37695V7.02148C30.6602 7.94336 30.7988 8.61719 31.0762 9.04297C31.3574 9.46875 31.7988 9.68164 32.4004 9.68164C32.9434 9.68164 33.3477 9.55859 33.6133 9.3125C33.8828 9.0625 34.0371 8.67773 34.0762 8.1582H35.834ZM43.9375 11H42.1738V3.89258H38.7578V11H37V2.46875H43.9375V11ZM50.6172 7.30273H47.2422V9.58789H51.2031V11H45.4844V2.46875H51.1914V3.89258H47.2422V5.92578H50.6172V7.30273ZM60.1445 13.0977H58.5215V11H53.377V13.0918H51.7129L51.6191 9.58789H52.2637C52.6113 9.29883 52.8789 8.875 53.0664 8.31641C53.2578 7.75391 53.3867 7.05859 53.4531 6.23047L53.6992 2.46875H59.2891V9.58789H60.2852L60.1445 13.0977ZM54.2793 9.58789H57.5312V3.89258H55.3691L55.2227 6.13672C55.1055 7.64062 54.791 8.79102 54.2793 9.58789ZM66.3262 2.46875H68.0898V11H66.3262V5.33398L62.9102 11H61.1523V2.46875H62.9102V8.14648L66.3262 2.46875ZM75.8594 3.89258H73.2461V11H71.4883V3.89258H68.9102V2.46875H75.8594V3.89258ZM83.7109 6.92773C83.7109 7.76758 83.5625 8.50391 83.2656 9.13672C82.9688 9.76953 82.543 10.2578 81.9883 10.6016C81.4375 10.9453 80.8047 11.1172 80.0898 11.1172C79.3828 11.1172 78.752 10.9473 78.1973 10.6074C77.6426 10.2676 77.2129 9.7832 76.9082 9.1543C76.6035 8.52148 76.4492 7.79492 76.4453 6.97461V6.55273C76.4453 5.71289 76.5957 4.97461 76.8965 4.33789C77.2012 3.69727 77.6289 3.20703 78.1797 2.86719C78.7344 2.52344 79.3672 2.35156 80.0781 2.35156C80.7891 2.35156 81.4199 2.52344 81.9707 2.86719C82.5254 3.20703 82.9531 3.69727 83.2539 4.33789C83.5586 4.97461 83.7109 5.71094 83.7109 6.54688V6.92773ZM81.9297 6.54102C81.9297 5.64648 81.7695 4.9668 81.4492 4.50195C81.1289 4.03711 80.6719 3.80469 80.0781 3.80469C79.4883 3.80469 79.0332 4.03516 78.7129 4.49609C78.3926 4.95312 78.2305 5.625 78.2266 6.51172V6.92773C78.2266 7.79883 78.3867 8.47461 78.707 8.95508C79.0273 9.43555 79.4883 9.67578 80.0898 9.67578C80.6797 9.67578 81.1328 9.44531 81.4492 8.98438C81.7656 8.51953 81.9258 7.84375 81.9297 6.95703V6.54102ZM86.7461 7.99414V11H84.9883V2.46875H88.3164C88.957 2.46875 89.5195 2.58594 90.0039 2.82031C90.4922 3.05469 90.8672 3.38867 91.1289 3.82227C91.3906 4.25195 91.5215 4.74219 91.5215 5.29297C91.5215 6.12891 91.2344 6.78906 90.6602 7.27344C90.0898 7.75391 89.2988 7.99414 88.2871 7.99414H86.7461ZM86.7461 6.57031H88.3164C88.7812 6.57031 89.1348 6.46094 89.377 6.24219C89.623 6.02344 89.7461 5.71094 89.7461 5.30469C89.7461 4.88672 89.623 4.54883 89.377 4.29102C89.1309 4.0332 88.791 3.90039 88.3574 3.89258H86.7461V6.57031Z" fill="#001B5E"/>
<g clip-path="url(#clip0)">
<path d="M10.2625 3.73921C9.7707 2.8966 9.10355 2.22945 8.26092 1.73763C7.41813 1.24584 6.49812 1 5.50016 1C4.50231 1 3.58202 1.24584 2.73938 1.73763C1.8967 2.22937 1.22955 2.89652 0.73771 3.73921C0.245845 4.58194 0 5.50224 0 6.50001C0 7.49784 0.24592 8.41798 0.737634 9.26077C1.22945 10.1034 1.8966 10.7705 2.73928 11.2624C3.58202 11.7542 4.50224 12 5.50006 12C6.49789 12 7.41821 11.7542 8.26089 11.2624C9.10353 10.7707 9.77065 10.1034 10.2624 9.26077C10.7542 8.41806 11 7.49779 11 6.50001C11 5.50214 10.7542 4.58182 10.2625 3.73921ZM8.87313 8.45506C8.52462 9.05182 8.052 9.52462 7.45523 9.87313C6.85847 10.2216 6.20679 10.3957 5.50009 10.3957C4.79356 10.3957 4.14183 10.2216 3.54499 9.87313C2.94823 9.5246 2.4756 9.05182 2.12709 8.45506C1.7785 7.85829 1.60427 7.20659 1.60427 6.50001C1.60427 5.79338 1.77858 5.14168 2.12709 4.54492C2.47553 3.94815 2.94828 3.47543 3.54499 3.12694C4.14176 2.7784 4.79346 2.6042 5.50009 2.6042C6.20677 2.6042 6.85847 2.7784 7.45523 3.12694C8.052 3.47545 8.52465 3.94815 8.87313 4.54492C9.22167 5.14168 9.39583 5.79338 9.39583 6.50001C9.39583 7.20659 9.22167 7.85829 8.87313 8.45506Z" fill="#FF5E13"/>
<path d="M3.66675 9.35743L7.33342 7.52414V3.64258L3.66675 5.47592V9.35743V9.35743ZM4.58345 6.04163L6.41692 6.95836L4.58345 7.87504V6.04163Z" fill="#FF5E13"/>
</g>
<defs>
<clipPath id="clip0">
<rect width="11" height="11" fill="white" transform="translate(0 1)"/>
</clipPath>
</defs>
</svg>
